<svg xmlns="http://www.w3.org/2000/svg" viewBox="0 0 750 500"><g id="freepik--background-simple--inject-28"><path d="M630.05,462.66a259.84,259.84,0,0,0-33.18-7.44c-50.91-7.81-168.25-10.53-225.12-8.12-73.83,3.12-307.81,55.41-325.48,7.58S33.79,56.41,68.1,49.13s156,21.36,227.74,23.44,243.33-25.52,314-28.64,77,8.32,93.59,69.67,34.31,263.09,31.19,309.88C732,463.26,656.48,470.33,630.05,462.66Z" style="fill:#407BFF"></path><path d="M630.05,462.66a259.84,259.84,0,0,0-33.18-7.44c-50.91-7.81-168.25-10.53-225.12-8.12-73.83,3.12-307.81,55.41-325.48,7.58S33.79,56.41,68.1,49.13s156,21.36,227.74,23.44,243.33-25.52,314-28.64,77,8.32,93.59,69.67,34.31,263.09,31.19,309.88C732,463.26,656.48,470.33,630.05,462.66Z" style="fill:#fff;opacity:0.7000000000000001"></path></g><g id="freepik--Floor--inject-28"><line x1="27.43" y1="434.28" x2="724.07" y2="434.28" style="fill:none;stroke:#263238;stroke-linecap:round;stroke-linejoin:round"></line></g><g id="freepik--Mirrors--inject-28"><rect x="53.61" y="113.28" width="303.21" height="137.54" style="fill:none;stroke:#263238;stroke-linecap:round;stroke-linejoin:round"></rect><rect x="59.78" y="117.59" width="290.87" height="128.93" style="fill:none;stroke:#263238;stroke-linecap:round;stroke-linejoin:round"></rect><line x1="333.05" y1="129.14" x2="247.23" y2="214.06" style="fill:none;stroke:#263238;stroke-linecap:round;stroke-linejoin:round"></line><line x1="262.33" y1="130.76" x2="252.03" y2="142.48" style="fill:none;stroke:#263238;stroke-linecap:round;stroke-linejoin:round"></line><line x1="181.02" y1="136.42" x2="154.05" y2="163.11" style="fill:none;stroke:#263238;stroke-linecap:round;stroke-linejoin:round"></line><rect x="380.87" y="113.3" width="303.87" height="137.5" style="fill:none;stroke:#263238;stroke-linecap:round;stroke-linejoin:round"></rect><rect x="387.37" y="117.59" width="290.87" height="128.93" style="fill:none;stroke:#263238;stroke-linecap:round;stroke-linejoin:round"></rect><line x1="486.46" y1="131.56" x2="446.82" y2="170.79" style="fill:#fff;stroke:#263238;stroke-linecap:round;stroke-linejoin:round"></line><line x1="513.44" y1="132.37" x2="505.26" y2="140.46" style="fill:#fff;stroke:#263238;stroke-linecap:round;stroke-linejoin:round"></line><line x1="511.8" y1="186.56" x2="461.54" y2="236.3" style="fill:#fff;stroke:#263238;stroke-linecap:round;stroke-linejoin:round"></line><line x1="618.87" y1="130.76" x2="602.94" y2="146.53" style="fill:#fff;stroke:#263238;stroke-linecap:round;stroke-linejoin:round"></line></g><g id="freepik--Lamps--inject-28"><path d="M64,77.69a4.82,4.82,0,1,1-4.82-4.81A4.82,4.82,0,0,1,64,77.69Z" style="fill:#fff;stroke:#263238;stroke-linecap:round;stroke-linejoin:round"></path><path d="M82.24,73c-3.75-1.73-19.34-3.45-22.76-3.81v-.07l-.34,0-.33,0v.07c-3.41.36-19,2.08-22.76,3.81-4.22,1.93-4.22,5.42-4.22,5.42H86.46S86.46,75,82.24,73Z" style="fill:#263238;stroke:#263238;stroke-linecap:round;stroke-linejoin:round"></path><rect x="58.56" y="32.21" width="1.16" height="35.72" style="fill:#263238"></rect><rect x="53.02" y="63.35" width="12.23" height="6.38" style="fill:#263238;stroke:#263238;stroke-linecap:round;stroke-linejoin:round"></rect><path d="M274.53,77.69a4.82,4.82,0,1,1-4.82-4.81A4.82,4.82,0,0,1,274.53,77.69Z" style="fill:#fff;stroke:#263238;stroke-linecap:round;stroke-linejoin:round"></path><path d="M292.82,73c-3.75-1.73-19.35-3.45-22.77-3.81v-.07l-.34,0-.33,0v.07c-3.42.36-19,2.08-22.77,3.81-4.22,1.93-4.22,5.42-4.22,5.42H297S297,75,292.82,73Z" style="fill:#263238;stroke:#263238;stroke-linecap:round;stroke-linejoin:round"></path><rect x="269.13" y="32.21" width="1.16" height="35.72" style="fill:#263238"></rect><rect x="263.6" y="63.35" width="12.23" height="6.38" style="fill:#263238;stroke:#263238;stroke-linecap:round;stroke-linejoin:round"></rect><path d="M485.1,77.69a4.82,4.82,0,1,1-4.81-4.81A4.81,4.81,0,0,1,485.1,77.69Z" style="fill:#fff;stroke:#263238;stroke-linecap:round;stroke-linejoin:round"></path><path d="M503.39,73c-3.75-1.73-19.35-3.45-22.77-3.81v-.07l-.33,0-.34,0v.07c-3.42.36-19,2.08-22.77,3.81C453,75,453,78.46,453,78.46h54.65S507.61,75,503.39,73Z" style="fill:#263238;stroke:#263238;stroke-linecap:round;stroke-linejoin:round"></path><rect x="479.71" y="32.21" width="1.16" height="35.72" style="fill:#263238"></rect><rect x="474.17" y="63.35" width="12.23" height="6.38" style="fill:#263238;stroke:#263238;stroke-linecap:round;stroke-linejoin:round"></rect><path d="M695.68,77.69a4.82,4.82,0,1,1-4.82-4.81A4.82,4.82,0,0,1,695.68,77.69Z" style="fill:#fff;stroke:#263238;stroke-linecap:round;stroke-linejoin:round"></path><path d="M714,73c-3.75-1.73-19.35-3.45-22.76-3.81v-.07l-.33,0-.34,0v.07c-3.42.36-19,2.08-22.76,3.81-4.22,1.93-4.22,5.42-4.22,5.42h54.64S718.18,75,714,73Z" style="fill:#263238;stroke:#263238;stroke-linecap:round;stroke-linejoin:round"></path><rect x="690.28" y="32.21" width="1.16" height="35.72" style="fill:#263238"></rect><rect x="684.74" y="63.35" width="12.23" height="6.38" style="fill:#263238;stroke:#263238;stroke-linecap:round;stroke-linejoin:round"></rect></g><g id="freepik--Stations--inject-28"><rect x="30.18" y="262.71" width="693.21" height="24.18" style="fill:#d9d9d9;stroke:#263238;stroke-linecap:round;stroke-linejoin:round"></rect><rect x="30.18" y="288.67" width="693.21" height="49.76" style="fill:#263238;stroke:#263238;stroke-linecap:round;stroke-linejoin:round"></rect><rect x="30.18" y="274.8" width="693.21" height="49.76" style="fill:#d9d9d9;stroke:#263238;stroke-linecap:round;stroke-linejoin:round"></rect><rect x="30.18" y="274.8" width="693.21" height="14.81" style="fill:#263238;stroke:#263238;stroke-linecap:round;stroke-linejoin:round"></rect><rect x="30.18" y="274.8" width="693.21" height="10.02" style="fill:#fff;stroke:#263238;stroke-linecap:round;stroke-linejoin:round"></rect><rect x="40.39" y="291.1" width="65.2" height="24.15" style="fill:#fff;stroke:#263238;stroke-linecap:round;stroke-linejoin:round"></rect><rect x="65.44" y="300.38" width="15.09" height="5.59" style="fill:#263238;stroke:#263238;stroke-linecap:round;stroke-linejoin:round"></rect><rect x="357.53" y="291.1" width="65.2" height="24.15" style="fill:#fff;stroke:#263238;stroke-linecap:round;stroke-linejoin:round"></rect><rect x="382.59" y="300.38" width="15.09" height="5.59" style="fill:#263238;stroke:#263238;stroke-linecap:round;stroke-linejoin:round"></rect><rect x="370.32" y="240.26" width="14.85" height="34.38" style="fill:#263238;stroke:#263238;stroke-linecap:round;stroke-linejoin:round"></rect><rect x="370.32" y="240.26" width="14.85" height="9.01" style="fill:#fff;stroke:#263238;stroke-linecap:round;stroke-linejoin:round"></rect><rect x="56.58" y="240.26" width="14.85" height="34.38" style="fill:#263238;stroke:#263238;stroke-linecap:round;stroke-linejoin:round"></rect><rect x="56.58" y="240.26" width="14.85" height="9.01" style="fill:#fff;stroke:#263238;stroke-linecap:round;stroke-linejoin:round"></rect><rect x="61.28" y="236.25" width="5.45" height="4.07" style="fill:#fff;stroke:#263238;stroke-linecap:round;stroke-linejoin:round"></rect><rect x="417.74" y="264.67" width="23.45" height="9.97" style="fill:#407BFF;stroke:#263238;stroke-linecap:round;stroke-linejoin:round"></rect><rect x="417.74" y="264.67" width="23.45" height="2.61" style="fill:#263238;stroke:#263238;stroke-linecap:round;stroke-linejoin:round"></rect><rect x="76.11" y="264.67" width="23.45" height="9.97" style="fill:#fff;stroke:#263238;stroke-linecap:round;stroke-linejoin:round"></rect><rect x="76.11" y="264.67" width="23.45" height="2.61" style="fill:#263238;stroke:#263238;stroke-linecap:round;stroke-linejoin:round"></rect><rect x="38.88" y="226.03" width="14.85" height="48.6" style="fill:#407BFF;stroke:#263238;stroke-linecap:round;stroke-linejoin:round"></rect><rect x="38.88" y="226.03" width="14.85" height="5.28" style="fill:#fff;stroke:#263238;stroke-linecap:round;stroke-linejoin:round"></rect><rect x="43.58" y="222.36" width="5.45" height="3.76" style="fill:#fff;stroke:#263238;stroke-linecap:round;stroke-linejoin:round"></rect><line x1="39.12" y1="235.8" x2="53.29" y2="235.8" style="fill:none;stroke:#263238;stroke-linecap:round;stroke-linejoin:round"></line></g><g id="freepik--character-4--inject-28"><path d="M690.7,428.87s-12.43,7.17-17,10.28-14.59,6.69-14.59,9.32.72,4.06,12.91,5.5,36.82-.72,41.13-3.11,2.87-5,2.63-8.85-4.07-10.75-4.07-10.75Z" style="fill:#fff;stroke:#263238;stroke-linecap:round;stroke-linejoin:round"></path><path d="M690,450.86c16-1.16,23.27-3.8,26.21-5.32.16,2.06-.18,3.74-3,5.32-4.31,2.39-28.93,4.54-41.13,3.11s-12.91-2.87-12.91-5.5a.91.91,0,0,1,.06-.32A92.11,92.11,0,0,0,690,450.86Z" style="fill:#fff;stroke:#263238;stroke-linecap:round;stroke-linejoin:round"></path><path d="M637.85,242.4,617.51,258s-12,3.07-12.81,3.62-10.58,10-12,11.14-2.34,2.93-1.66,3.61,1.69-.34,1.69-.34,3.74-3,4.25-3.56a21.54,21.54,0,0,1,3.73-1.7s-3.9,4.41-4.58,5.09-2.38,4.07-1.7,4.75,2.89-.68,2.89-.68,0,2.21,1.52,2.21,3.06-2.21,3.06-2.21.84,3.06,1.69,2,4.58-7,4.58-7,4.24-2.54,6.28-3.73a25.32,25.32,0,0,0,4.75-4.41l20-8.31S638.48,243.38,637.85,242.4Z" style="fill:#d9d9d9;stroke:#263238;stroke-linecap:round;stroke-linejoin:round"></path><path d="M613.63,265.34a25.11,25.11,0,0,1-4.24,3.22,23.9,23.9,0,0,1-5.43,1.36,22.66,22.66,0,0,1-5.09,3.39c-2.88,1.36-4.58,0-3.39-1.53s5.94-4.41,5.94-4.41l3.73-3.73" style="fill:#d9d9d9;stroke:#263238;stroke-linecap:round;stroke-linejoin:round"></path><path d="M700.37,265.38a73.19,73.19,0,0,1,.38,23c-1.88,11.67-12.06,49.34-12.06,51.23s7.16,15.82,12.06,31.26,10.17,54.29,10.17,54.29,4.14.38,4.14,1.51-3,11.67-3,11.67-16.2-6-18.84-6a57.44,57.44,0,0,1-7.15-.76,140.8,140.8,0,0,0-2.64-15.44c-1.51-5.65-26-78.4-26-78.4L655.55,317l-7.16,23.35s2.26,25.61,4.9,41.81,3.76,27.92,3.76,29.05c0,.92-1.74,17.44-2.39,18.77a1.29,1.29,0,0,1-.77.66c-1.62.52-6.59,1.95-10,1.33s-9.1-5-10.8-6.37a1.25,1.25,0,0,1-.47-1.09c.08-1.17-1.36-4-.26-6.74,1.27-3.18.78-5.56.06-6.31-.14-.15-1.69-4-1.75-4.17-1-3.68-8.73-50.85-10.51-65.43-1.89-15.45,6.4-36.17,10.92-44.08s8.29-20.71,8.29-20.71l.75-7.91Z" style="fill:#263238;stroke:#263238;stroke-linecap:round;stroke-linejoin:round"></path><path d="M644.68,165.34s12.33.41,20.54,5.34S681,189.79,681,189.79l22.74,79.12S688,274.18,679.62,272s-21.09,11.86-21.09,11.86l-6.15-7.91-3.07,7.47-13.18-14.5s1.32-12.3-.44-21.52-13.62-32.07-13.62-48.32-2.19-15.38,2.2-22.41S644.68,165.34,644.68,165.34Z" style="fill:#407BFF;stroke:#263238;stroke-linecap:round;stroke-linejoin:round"></path><path d="M642.72,238.77s7.51,21.52,8.51,31" style="fill:none;stroke:#263238;stroke-linecap:round;stroke-linejoin:round"></path><path d="M641.9,178.5l-4,36.79s-11.65-18.32-11.65-28.1v-9.78l15.06-6.21Z" style="fill:#fff;stroke:#263238;stroke-linecap:round;stroke-linejoin:round"></path><path d="M596.32,168.85s-2.41-.51-5-6.17-1.29-11.32,5.66-18.53,17-10.54,24.44-3.6,7.71,15.95,10,19.3,10.8,4.37,10.8,4.37-8.48,24.44-10,25.21-5.4-6.43-5.4-6.43l-2.06-.26s-5.49,5.73-9.26,5-13.74-11.64-13.74-11.64-3.77,2.64-4.53.75S596.32,168.85,596.32,168.85Z" style="fill:#d9d9d9;stroke:#263238;stroke-linecap:round;stroke-linejoin:round"></path><path d="M616.13,149.92s.11.37.31,1c1,3,3.95,11.93,5,13.41,1.3,1.78,4,3.56,4.37,7.76s1.62,7.92-1.05,10.67-4.06,6.55-9.26,5-13.74-11.64-13.74-11.64,6.1-7.88,8.2-7.88,6,1,6.79-.65.17-7.43-.32-9.7-5.17-6.46-5.17-6.46" style="fill:#263238;stroke:#263238;stroke-linecap:round;stroke-linejoin:round"></path><path d="M605.65,176.77s3-.53,3.87-5.81" style="fill:none;stroke:#8f8f8f;stroke-linecap:round;stroke-linejoin:round"></path><path d="M597.13,162.24a8.33,8.33,0,0,1,6.06-3.78" style="fill:none;stroke:#263238;stroke-linecap:round;stroke-linejoin:round"></path><path d="M601.32,165.07c.87.71,1.89.88,2.29.39s0-1.46-.84-2.16-1.9-.89-2.3-.4S600.45,164.36,601.32,165.07Z" style="fill:#263238"></path><path d="M621.44,140.55c5.62,5.23,7.15,11.63,8.55,15.9l-8.14-4.68-3-.88s-7,1.24-10.91.71-4.4-4.4-5.81-4.76-12,10.74-12,10.74l0-.15c0-4,2.06-8.28,6.88-13.28C603.94,137,614,133.61,621.44,140.55Z" style="fill:#263238;stroke:#263238;stroke-linecap:round;stroke-linejoin:round"></path><path d="M616.57,152.83s.7-4.75,5.1-3.7,3,9.33,1.76,10.92-3.17.17-3.87-2.29" style="fill:#d9d9d9;stroke:#263238;stroke-linecap:round;stroke-linejoin:round"></path><polygon points="642.83 161.44 646.53 163.9 637.9 193.07 631.53 187.12 642.83 161.44" style="fill:#fff;stroke:#263238;stroke-linecap:round;stroke-linejoin:round"></polygon><path d="M646.73,175.15s3.93-6.55,14.41-1,14.67,18.08,14.94,27.77-9.44,18.61-11.8,18.34-14.41-6.28-19.39-17.29S639.13,181.7,646.73,175.15Z" style="fill:#fff;stroke:#263238;stroke-linecap:round;stroke-linejoin:round"></path><path d="M666.89,179.15s6.23,10.19,4.53,15.85-14.71,28.58-14.71,28.58l-24.62-7.36L640,188.78s2.83-13.3,11.89-16.7" style="fill:#fff;stroke:#263238;stroke-linecap:round;stroke-linejoin:round"></path><path d="M568.13,197.26a53.18,53.18,0,0,0-5.52-3.7c-1.51-.68-4.4-1.23-5.08.69s1.92,5.77,1.92,5.77l14.43.83Z" style="fill:#fff;stroke:#263238;stroke-linecap:round;stroke-linejoin:round"></path><path d="M559.86,193s-1.23,0-.41,1.79,2.06,4.95,2.06,4.95-2.61,1.1-4.26-2.89S557.11,191.36,559.86,193Z" style="fill:#263238;stroke:#263238;stroke-linecap:round;stroke-linejoin:round"></path><path d="M632.09,216.22l-.57,2.55S582.28,199.81,578,199s-9.91-1.7-9.91-1.7l3.68,2.27s-8.49-.85-9.62-.85-3.68.28-2.54,2.55a7.18,7.18,0,0,0,2.82,3.11s5.95,6.79,9.34,8.21,13.3-.57,13.3-.57,36.51,25.18,40.75,26.88,8.77,3.12,9.91,2.27,16.13-19.25,16.13-19.25Z" style="fill:#d9d9d9;stroke:#263238;stroke-linecap:round;stroke-linejoin:round"></path><polygon points="632.09 216.22 649.45 224.12 651.9 221.88 632.09 216.22" style="fill:#263238;stroke:#263238;stroke-linecap:round;stroke-linejoin:round"></polygon><line x1="562.47" y1="204.34" x2="568.76" y2="206.03" style="fill:none;stroke:#263238;stroke-linecap:round;stroke-linejoin:round"></line><path d="M634.59,425.54a1.3,1.3,0,0,0-1,.26c-2,1.53-9.78,7.61-11,8-1.43.48-16.26,5-17,7.18s-.24,4.06,1.19,4.78,22,2.39,26.54,1.91,15.78-1.91,18.89-2.15,5,.24,6.22-2.15c1-2-1.95-11.18-2.86-13.85a1.29,1.29,0,0,0-1-.86Z" style="fill:#fff;stroke:#263238;stroke-linecap:round;stroke-linejoin:round"></path><path d="M606.75,445.76a1.29,1.29,0,0,1,.84-2.39c7.93,1,22.95,2,31.71.26a83,83,0,0,1,19.33-1.57,3,3,0,0,1-.2,1.33c-1.2,2.39-3.11,1.91-6.22,2.15s-14.35,1.67-18.89,2.15-25.1-1.19-26.54-1.91Z" style="fill:#fff;stroke:#263238;stroke-linecap:round;stroke-linejoin:round"></path><polygon points="631.53 187.12 632.28 192.31 635.85 191.38 631.53 187.12" style="fill:#fff;stroke:#263238;stroke-linecap:round;stroke-linejoin:round"></polygon><polygon points="632.28 192.31 626.84 183 624.83 189.05 632.28 192.31" style="fill:#fff;stroke:#263238;stroke-linecap:round;stroke-linejoin:round"></polygon><polygon points="624.83 189.05 625.76 196.19 629.33 191.38 624.83 189.05" style="fill:#fff;stroke:#263238;stroke-linecap:round;stroke-linejoin:round"></polygon></g><g id="freepik--character-3--inject-28"><rect x="482.05" y="355.57" width="32.24" height="32.53" transform="translate(996.35 743.68) rotate(180)" style="fill:#c4c4c4;stroke:#263238;stroke-linecap:round;stroke-linejoin:round"></rect><rect x="487.51" y="355.57" width="21.33" height="32.53" transform="translate(996.35 743.68) rotate(180)" style="fill:#969696"></rect><rect x="492.31" y="355.57" width="11.73" height="32.53" transform="translate(996.35 743.68) rotate(180)" style="fill:#575757"></rect><path d="M479.73,417.09V384.62H516v32.69a16.42,16.42,0,0,0,13.27,16.17c11.91,2.26,19.55,5.75,19.55,9.67,0,6.82-23.08,12.35-51.56,12.35s-51.56-5.53-51.56-12.35c0-4,8-7.56,20.32-9.82A16.55,16.55,0,0,0,479.73,417.09Z" style="fill:#fff;stroke:#263238;stroke-linecap:round;stroke-linejoin:round"></path><path d="M451.6,437.44c2.68,6.41,21.72,11.38,44.83,11.38,23.89,0,43.43-5.31,45.05-12,4.68,1.85,7.38,4,7.38,6.35,0,6.82-23.08,12.35-51.56,12.35s-51.56-5.53-51.56-12.35C445.74,441.09,447.87,439.15,451.6,437.44Z" style="fill:#263238;stroke:#263238;stroke-linecap:round;stroke-linejoin:round"></path><path d="M523.41,168.22s8.17-6,17.78-2.64,14.17,11.53,14.17,18.73a32,32,0,0,1-3.12,13.22l.72,15.61-27.15,7-1-4.08s-4.44,1.16-6.12-1.72-4.56-11.5-4.56-11.5-4.21-2.39-4.21-3.35S513.8,191,513.8,191a33.76,33.76,0,0,1-1-6.49c0-2.64,2.65-10.81,2.65-10.81s-3.37-4.56,1.2-7.2A4.54,4.54,0,0,1,523.41,168.22Z" style="fill:#fff;stroke:#263238;stroke-linecap:round;stroke-linejoin:round"></path><path d="M516.69,166.54a4.54,4.54,0,0,1,6.72,1.68s8.17-6,17.78-2.64,14.17,11.53,14.17,18.73a32,32,0,0,1-3.12,13.22l.06,1.26a10,10,0,0,1-3.43-.06c-2.88-.72-6.72-3.85-6.72-3.85s1.68-4.32-1-7.2-4.81-3.13-6.73-1.68-1.2,5.28-1.2,5.28-4.08,1-4.32,0-1.2-5.77-1.2-5.77-6.25-3.12-7.21-4.32,2.16-5.52,2.16-5.52l-2.4-.48a31,31,0,0,1-4.8-1.45S512.12,169.18,516.69,166.54Z" style="fill:#263238;stroke:#263238;stroke-linecap:round;stroke-linejoin:round"></path><path d="M542.15,194.88s-.48,2.89-2.16,3.85-5.29-1-5.29-1" style="fill:#fff;stroke:#263238;stroke-linecap:round;stroke-linejoin:round"></path><path d="M519.33,191.56a5.77,5.77,0,0,1-4.37.6" style="fill:none;stroke:#263238;stroke-linecap:round;stroke-linejoin:round"></path><path d="M513.91,188.1s2-1.66,5.27-.15" style="fill:none;stroke:#263238;stroke-linecap:round;stroke-linejoin:round"></path><line x1="515.88" y1="205.54" x2="518.04" y2="205.3" style="fill:none;stroke:#263238;stroke-linecap:round;stroke-linejoin:round"></line><path d="M437,365.88l-17.43,50.34-56.87-8.72-25.8-13.65-6.08,10.81L360,423.23l60.14,4.23,23.14-52.15S443.06,364.91,437,365.88Z" style="fill:#263238;stroke:#263238;stroke-linecap:round;stroke-linejoin:round"></path><path d="M394.15,393.6s-8.84,3-12.15,3.38-14.9-2.06-17.29,0a6.77,6.77,0,0,0-2.21,7.7c.92,3.19,12.14,11.46,18,12.77s24.84,2.63,29.44,2.25,7.55-4.88,7.55-9.76a30.79,30.79,0,0,0-1.66-9.39Z" style="fill:#fff;stroke:#263238;stroke-linecap:round;stroke-linejoin:round"></path><path d="M362.5,404.68a8.26,8.26,0,0,1-.33-3.34c3.71,6,12.5,12.87,19.46,14.61,7.49,1.87,29.25,1.28,33.37,1.15a7.39,7.39,0,0,1-5,2.6c-4.6.38-23.55-.94-29.44-2.25S363.42,407.87,362.5,404.68Z" style="fill:#fff;stroke:#263238;stroke-linecap:round;stroke-linejoin:round"></path><path d="M403.78,328.65s-10,50.38-10.22,51.19-2,6.68-2,6.68-3,2-3,2.63,2,8.5,2,8.5.61,5.86,7.28,9.71,17.24-1.7,18.45-2.71,1.17-.41,2-6.27,2.34-13.45,2.34-13.45l13.66-46.76,3-2.23.61-3,7.69-1.62s11.33,4.45,20,4.85,64.74,10.73,66.15,8.1,14.37-64.74,14.17-66.57-42.29,4.46-42.29,4.46-76.07,21-78.7,22.05-11.53,6.07-14.36,10.11S403.78,328.65,403.78,328.65Z" style="fill:#263238;stroke:#263238;stroke-linecap:round;stroke-linejoin:round"></path><path d="M503.62,282.13s42.08-6.28,42.29-4.46-12.75,63.94-14.17,66.57c-.18.34-1.3.46-3.12.41L482.77,287.9Z" style="fill:#969696;stroke:#263238;stroke-linecap:round;stroke-linejoin:round"></path><path d="M436.45,330.68A77.76,77.76,0,0,1,420.27,323" style="fill:none;stroke:#263238;stroke-linecap:round;stroke-linejoin:round"></path><path d="M414.81,323.6s9.71,5.46,15,7.08" style="fill:none;stroke:#263238;stroke-linecap:round;stroke-linejoin:round"></path><path d="M399.43,397.44s-9.51-2.22-4.86-3.23,19.43.4,19.43,2.63" style="fill:none;stroke:#263238;stroke-linecap:round;stroke-linejoin:round"></path><path d="M572.05,290.53s-8.18,35-9.31,35.57-27.11-4.23-27.11-6.77,13.27-51.1,13.27-51.1l26.82,11.57Z" style="fill:#263238;stroke:#263238;stroke-linecap:round;stroke-linejoin:round"></path><path d="M539.87,267.94s-25.69,26-30.21,27.95S473,306.34,473,306.34s-7.05,4-8.75,5.08a28.58,28.58,0,0,1-4.8,2.26s-7.34,5.65-8.75,5.37-1.13-2.54-1.13-2.54-3.67.84-3.67-.85,7.06-8.47,7.06-8.47-7.62,1.41-9,2.26-4.8,2.82-5.36.56,2.26-3.39,2.26-3.39-.57-.84,1.13-2.54,6.49-3.95,6.49-3.95L519,281.78Z" style="fill:#fff;stroke:#263238;stroke-linecap:round;stroke-linejoin:round"></path><line x1="457.2" y1="310.45" x2="449.52" y2="316.51" style="fill:none;stroke:#263238;stroke-linecap:round;stroke-linejoin:round"></line><line x1="453.15" y1="302.22" x2="440.77" y2="306.62" style="fill:none;stroke:#263238;stroke-linecap:round;stroke-linejoin:round"></line><path d="M518.41,222.21s12.71-7.63,18.92-9.32S553.42,210.63,556,214s42.07,52.23,41.22,54.21-8.75,16.37-8.75,16.37-7.06,24.85-7.06,26.82-16.66-11.57-18.07-15.24-1.69-14.4-5.65-15.81S426.09,305.78,419,308.88s-15.25,19.77-15.25,19.77-.28-10.45.29-12.14,33.88-27.39,37.26-29.65,54.49-48.28,61.83-53.64S518.41,222.21,518.41,222.21Z" style="fill:#407BFF;stroke:#263238;stroke-linecap:round;stroke-linejoin:round"></path><path d="M557.65,280.37s8.47-.29,8.47,2.82-2.82,13-2.82,13Z" style="fill:#263238;stroke:#263238;stroke-linecap:round;stroke-linejoin:round"></path><path d="M551.86,223.88A29.36,29.36,0,0,0,550,219.1" style="fill:none;stroke:#263238;stroke-linecap:round;stroke-linejoin:round"></path><path d="M566.12,283.19s-7.14-33.59-12.26-52.4" style="fill:none;stroke:#263238;stroke-linecap:round;stroke-linejoin:round"></path><path d="M494.45,277.22c-11.07,8-17.54,8.23-17.54,8.23" style="fill:none;stroke:#263238;stroke-linecap:round;stroke-linejoin:round"></path><path d="M530.27,229s-19.92,34.79-32.45,45.65" style="fill:none;stroke:#263238;stroke-linecap:round;stroke-linejoin:round"></path><path d="M461.92,278.81c-4.28,2.76-7,4.38-7,4.38" style="fill:none;stroke:#263238;stroke-linecap:round;stroke-linejoin:round"></path><path d="M508.12,238.26c-1.8,2-3.65,4.13-5.52,6.53-9.47,12.15-26.06,24.3-37,31.58" style="fill:none;stroke:#263238;stroke-linecap:round;stroke-linejoin:round"></path><path d="M531.12,221.08s-9.17,3-20.74,14.81" style="fill:none;stroke:#263238;stroke-linecap:round;stroke-linejoin:round"></path><polygon points="540.43 309.45 544.67 344.17 499.78 335.42 488.76 303.24 540.43 309.45" style="fill:#fff;stroke:#263238;stroke-linecap:round;stroke-linejoin:round"></polygon><path d="M547.77,343.61l-99.38-17.79s-20.89,39.53-20.61,40.66,23.44,6.77,55.62,11.86,69.45-5.37,69.45-7.63S547.77,343.61,547.77,343.61Z" style="fill:#fff;stroke:#263238;stroke-linecap:round;stroke-linejoin:round"></path><path d="M538.17,301.26s10.45,1.13,11,3.67-.84,8.47-3.67,9-93.45-14.39-94.29-16.65.84-11.58,2.25-11.58S538.17,301.26,538.17,301.26Z" style="fill:#969696;stroke:#263238;stroke-linecap:round;stroke-linejoin:round"></path><path d="M449,372.12s2.26,6.22,2,8.19-2.54,6.21-2.54,6.21L432.86,382s7.34-5.09,7.34-6.21a58.78,58.78,0,0,0-1.69-6.78Z" style="fill:#263238;stroke:#263238;stroke-linecap:round;stroke-linejoin:round"></path><path d="M432.86,382l-12.7,45.45L360,423.23l-29.19-18.57-2.54,3.67,29.76,20.26s69.73,7.34,70.58,7.06,19.76-49.13,19.76-49.13Z" style="fill:#969696;stroke:#263238;stroke-linecap:round;stroke-linejoin:round"></path><path d="M448.39,325.82l99.38,17.79s.8,3.92,1.77,8.78L444.09,334C446.61,329.19,448.39,325.82,448.39,325.82Z" style="fill:#969696;stroke:#263238;stroke-linecap:round;stroke-linejoin:round"></path></g><g id="freepik--character-2--inject-28"><path d="M218.84,163.54s-6,1.5-7.71,6.85a80.06,80.06,0,0,0-2.56,12.2s-3.86,0-3.86,5.78,1.93,6.42,2.79,6.85.85,8.56.64,9.84-.64,4.5-.64,4.5h23.75l3.86-9.63s6.2-.43,6.63-6.21-3.21-5.14-3.21-5.14,4.07-9,1.71-16.48S231.25,157.76,218.84,163.54Z" style="fill:#d9d9d9;stroke:#263238;stroke-linecap:round;stroke-linejoin:round"></path><path d="M240.24,172.1c-2.35-7.49-9-14.34-21.4-8.56,0,0-6,1.5-7.71,6.85a80.06,80.06,0,0,0-2.56,12.2s3.85,12.63,6.63,13.91,10.27,1.72,12.63,1.29,10.7-9.21,10.7-9.21S242.6,179.59,240.24,172.1Z" style="fill:#969696;stroke:#263238;stroke-linecap:round;stroke-linejoin:round"></path><path d="M218.84,163.54s-5,1.25-7.14,5.52a22.65,22.65,0,0,0,14.42,8.39,24.62,24.62,0,0,0,14.68-2.75,14.9,14.9,0,0,0-.56-2.6C237.89,164.61,231.25,157.76,218.84,163.54Z" style="fill:#263238;stroke:#263238;stroke-linecap:round;stroke-linejoin:round"></path><path d="M273.3,310.94c-3.1-5-23.88-2.79-23.88-2.79L173.1,297.91v35.68h76.32V352.2h12.72s9-18,11.16-27S273.3,310.94,273.3,310.94Z" style="fill:#263238;stroke:#263238;stroke-linecap:round;stroke-linejoin:round"></path><rect x="182.55" y="355.07" width="70.72" height="45.46" style="fill:#969696;stroke:#263238;stroke-linecap:round;stroke-linejoin:round"></rect><polygon points="182.54 400.53 190.27 407.96 245.54 407.96 253.26 400.53 182.54 400.53" style="fill:#969696;stroke:#263238;stroke-linecap:round;stroke-linejoin:round"></polygon><rect x="188.19" y="357.15" width="59.43" height="20.5" style="fill:#263238;stroke:#263238;stroke-linecap:round;stroke-linejoin:round"></rect><rect x="187.89" y="382.7" width="59.43" height="15.15" style="fill:#263238;stroke:#263238;stroke-linecap:round;stroke-linejoin:round"></rect><path d="M235.14,416.21V383H198v33.43A16.79,16.79,0,0,1,184.42,433c-12.18,2.32-20,5.89-20,9.9,0,7,23.61,12.63,52.74,12.63s52.74-5.65,52.74-12.63c0-4.1-8.15-7.74-20.78-10A16.94,16.94,0,0,1,235.14,416.21Z" style="fill:#fff;stroke:#263238;stroke-linecap:round;stroke-linejoin:round"></path><rect x="199.78" y="353.29" width="32.98" height="33.28" style="fill:#c4c4c4;stroke:#263238;stroke-linecap:round;stroke-linejoin:round"></rect><rect x="205.36" y="353.29" width="21.82" height="33.28" style="fill:#969696"></rect><rect x="210.27" y="353.29" width="12" height="33.28" style="fill:#575757"></rect><path d="M235.14,416.21V383H198v33.43A16.79,16.79,0,0,1,184.42,433c-12.18,2.32-20,5.89-20,9.9,0,7,23.61,12.63,52.74,12.63s52.74-5.65,52.74-12.63c0-4.1-8.15-7.74-20.78-10A16.94,16.94,0,0,1,235.14,416.21Z" style="fill:#fff;stroke:#263238;stroke-linecap:round;stroke-linejoin:round"></path><path d="M263.91,437c-2.74,6.55-22.22,11.63-45.86,11.63-24.43,0-44.42-5.42-46.08-12.29-4.78,1.9-7.55,4.12-7.55,6.5,0,7,23.61,12.63,52.74,12.63s52.74-5.65,52.74-12.63C269.9,440.76,267.73,438.78,263.91,437Z" style="fill:#263238;stroke:#263238;stroke-linecap:round;stroke-linejoin:round"></path><rect x="166.2" y="339.02" width="97.46" height="38.68" style="fill:#fff;stroke:#263238;stroke-linecap:round;stroke-linejoin:round"></rect><path d="M174.18,328.33h81.5a8,8,0,0,1,8,8V339a0,0,0,0,1,0,0H166.2a0,0,0,0,1,0,0v-2.72A8,8,0,0,1,174.18,328.33Z" style="fill:#969696;stroke:#263238;stroke-linecap:round;stroke-linejoin:round"></path><rect x="253.45" y="316.52" width="4.96" height="41.26" style="fill:#fff;stroke:#263238;stroke-linecap:round;stroke-linejoin:round"></rect><rect x="171.24" y="316.52" width="4.96" height="41.26" style="fill:#fff;stroke:#263238;stroke-linecap:round;stroke-linejoin:round"></rect><polygon points="170.64 284.95 170.64 311.99 258.97 311.99 258.97 244.84 170.64 244.84 170.64 284.95" style="fill:#969696;stroke:#263238;stroke-linecap:round;stroke-linejoin:round"></polygon><rect x="167.85" y="311.45" width="94.81" height="7.43" rx="2.77" style="fill:#fff;stroke:#263238;stroke-linecap:round;stroke-linejoin:round"></rect><path d="M238.92,211.53s-9-4.35-14.59-5.12-13.31,0-16.12,1.54-8.7,4.09-8.7,4.09S171.87,225.86,170.08,230s-10.49,59.62-9.72,65.25-1.8,23-1.8,23,22.52-23.8,26.62-29.43,29.17-28.66,29.94-28.15,39.66,46.83,39.66,46.83-1.27,6.91-.51,7.16,12.54,2,18.68,1l6.15-1-1-6.65,15.36-7.93s-25.34-70.38-32-77.54S238.92,211.53,238.92,211.53Z" style="fill:#407BFF;stroke:#263238;stroke-linecap:round;stroke-linejoin:round"></path><line x1="274.52" y1="293.42" x2="276.54" y2="303.15" style="fill:none;stroke:#263238;stroke-linecap:round;stroke-linejoin:round"></line><line x1="261.44" y1="230.21" x2="273.28" y2="287.41" style="fill:none;stroke:#263238;stroke-linecap:round;stroke-linejoin:round"></line><line x1="254.01" y1="261.08" x2="253.76" y2="252.99" style="fill:none;stroke:#263238;stroke-linecap:round;stroke-linejoin:round"></line><line x1="255.3" y1="303.4" x2="254.17" y2="266.31" style="fill:none;stroke:#263238;stroke-linecap:round;stroke-linejoin:round"></line><line x1="176.98" y1="258.45" x2="177.5" y2="241.99" style="fill:none;stroke:#263238;stroke-linecap:round;stroke-linejoin:round"></line><line x1="175.71" y1="298.29" x2="176.78" y2="264.77" style="fill:none;stroke:#263238;stroke-linecap:round;stroke-linejoin:round"></line></g><g id="freepik--character-1--inject-28"><path d="M138.79,113.56s-7.44.65-9.06,5.66-2.43,13.27-2.59,14.89-5.82,9.87-5.82,9.87,21,17.35,26.84,17.79c1.31.1,4.05-2.26,4.54-4.21s.66-3.06,2.6-4.84,5.66-.65,6.31-1.78-1.13-6.15,0-7.6,3.23-.81,4.21-6,1-11.49-3.89-17.15S146.56,110.65,138.79,113.56Z" style="fill:#fff;stroke:#263238;stroke-linecap:round;stroke-linejoin:round"></path><path d="M152.55,153.37s-2.43-.16-3.24-3.72" style="fill:none;stroke:#263238;stroke-linecap:round;stroke-linejoin:round"></path><path d="M161.93,120.2c-4.85-5.67-15.37-9.55-23.14-6.64,0,0-7.44.65-9.06,5.66s-2.43,13.27-2.59,14.89a4.18,4.18,0,0,1-.43,1.17c.3.89.59,1.58.76,1.58.48,0,10.51-6.63,10.51-6.63l2.27-1.13s5.66,2.1,6.15,1.61,1.29-3.39,2.26-3.39,5.18,2.58,6.15.16-5.66-6.64-.65-7.45c3.15-.5,7.31,1.66,10,3.35A18.61,18.61,0,0,0,161.93,120.2Z" style="fill:#263238;stroke:#263238;stroke-linecap:round;stroke-linejoin:round"></path><path d="M141.06,131.68s-.65-7.28-3.72-5.34-3.56,5.83-2.27,9.55,4.21,2.91,5.18,2.43" style="fill:#fff;stroke:#263238;stroke-linecap:round;stroke-linejoin:round"></path><path d="M157.56,142.1c-.55,1-1.37,1.58-1.84,1.32s-.42-1.28.13-2.26,1.37-1.58,1.84-1.32S158.1,141.11,157.56,142.1Z" style="fill:#263238"></path><path d="M155,137.05s4.64-.83,5.65,2.73" style="fill:none;stroke:#263238;stroke-linecap:round;stroke-linejoin:round"></path><path d="M142.1,164.8l.84-5s-5.43-7.51-11.26-11.68A41.72,41.72,0,0,0,119,142.28l-1.67,5s9.8,6,14.18,9.59S142.1,164.8,142.1,164.8Z" style="fill:#fff;stroke:#263238;stroke-linecap:round;stroke-linejoin:round"></path><path d="M110.72,362.18S97.45,419.76,96.84,421,90.75,447.16,92,448.69s17.66.91,17.66.91S120.9,370.13,120,363.12s-1.21-17.35-1.21-17.35Z" style="fill:#263238;stroke:#263238;stroke-linecap:round;stroke-linejoin:round"></path><path d="M96.32,422.8c-1.51,6-5.39,24.58-4.35,25.89,1.22,1.52,17.66.91,17.66.91s1.68-11.85,3.69-26.8Z" style="fill:#fff;stroke:#263238;stroke-linecap:round;stroke-linejoin:round"></path><polygon points="95.62 416.71 93.31 426.91 120.01 426.26 121.61 416.94 95.62 416.71" style="fill:#fff;stroke:#263238;stroke-linecap:round;stroke-linejoin:round"></polygon><path d="M104.29,428.44s-2.9,19.95-3.22,23.16,7.4,4.18,14.8,5.15,29.91,1.61,34.41,0,5.47-6.43,3.22-7.72-14.8-6.43-19.62-9.65-5.15-10.62-5.15-10.62Z" style="fill:#fff;stroke:#263238;stroke-linecap:round;stroke-linejoin:round"></path><path d="M150.28,456.75a7.06,7.06,0,0,0,3.29-2.37A68.52,68.52,0,0,1,139,456.1c-12.56.25-30.19-4-37.78-6-.08.67-.14,1.2-.18,1.54-.32,3.22,7.4,4.18,14.8,5.15S145.78,458.36,150.28,456.75Z" style="fill:#fff;stroke:#263238;stroke-linecap:round;stroke-linejoin:round"></path><path d="M161.12,346.4l8.7,46.83s1-40.18-.25-43.76S160.61,337.44,161.12,346.4Z" style="fill:#407BFF;stroke:#263238;stroke-linecap:round;stroke-linejoin:round"></path><path d="M158.56,318.25s-1.28,17.14.26,21.49S168.29,358.17,168,360s-.25,18.94.77,26.1l1,7.17s2.56-38.9,2.56-50.67-.25-41.72-.25-41.72S159.59,312.87,158.56,318.25Z" style="fill:#263238;stroke:#263238;stroke-linecap:round;stroke-linejoin:round"></path><path d="M103.65,240.6s-2.58,28.63-.65,34.74,6.11,29.91,6.11,29.91,2.9,46.64,1.61,56.93-6.43,66.26-6.43,66.26l24.44.32s17.05-88.77,17.69-98.42,4.51-68.83,5.15-71.73,1-15.43,1-15.43S115.22,234.17,103.65,240.6Z" style="fill:#263238;stroke:#263238;stroke-linecap:round;stroke-linejoin:round"></path><path d="M119.73,241.25l.8-2.88c-6.88-.3-13.19.18-16.88,2.23,0,0-.41,4.51-.78,10.33a155,155,0,0,1,16.62-1.45Z" style="fill:#fff;stroke:#263238;stroke-linecap:round;stroke-linejoin:round"></path><path d="M140.63,242.85l-17.69-1.6-.46,8.16a139.63,139.63,0,0,1,18.15.86Z" style="fill:#fff;stroke:#263238;stroke-linecap:round;stroke-linejoin:round"></path><path d="M143.18,241.22l0,0,.27,9.39c2.88.41,5.78.91,8.69,1.56.24-4.31.36-9,.36-9S148.73,242.26,143.18,241.22Z" style="fill:none;stroke:#263238;stroke-linecap:round;stroke-linejoin:round"></path><path d="M146.06,169s-14-15.85-21.89-19.6-12.72-.42-15,2.92S95,166.89,96.23,181.48s4,64,4,64,23.77-3.76,32.11-2.09,23.15,4,23.15,4-3.13-30.66-3.13-45S148.77,173.77,146.06,169Z" style="fill:#407BFF;stroke:#263238;stroke-linecap:round;stroke-linejoin:round"></path><path d="M195.34,179.32s-.69-2.29,2.74-2.08,5.78.21,6,2.57-1.71,4.92-3,5.78-4-.34-7,.36S195.34,179.32,195.34,179.32Z" style="fill:#fff;stroke:#263238;stroke-linecap:round;stroke-linejoin:round"></path><path d="M203.43,177.88s3.42.64,3.42,1.93-1.91,6-3.09,6.65-4.4-.45-4.4-.45A6.46,6.46,0,0,0,203.43,177.88Z" style="fill:#263238;stroke:#263238;stroke-linecap:round;stroke-linejoin:round"></path><path d="M112.41,155.08s-11.49,9.95-11.49,19.39,9.19,17.61,12.51,19.91,20.16,32.4,21.69,32.91,24.24-6.38,36.49-15.56S190.49,199,190.49,199s5.36-1.28,6.38-2a53.48,53.48,0,0,0,4.08-4.34,10.46,10.46,0,0,0,2.3-2.81c.76-1.53,1.78-3.32.51-3.32s-9.7-.51-9.7-.51,2-4.84,1.28-6.63-2.81-.51-3.57,1-1.28,3.32-2.05,3.32-6.12,3.57-6.89,6.38l-.76,2.8s-10.21,5.87-16.84,7.15-17.86,2-17.86,2l-7.66-25.52s-3.57-14.54-10.46-19.39S115.72,152.27,112.41,155.08Z" style="fill:#fff;stroke:#263238;stroke-linecap:round;stroke-linejoin:round"></path><path d="M146.9,200.49l-7.19-24s-3.57-14.54-10.46-19.39-13.53-4.85-16.84-2c0,0-11.49,9.95-11.49,19.39s9.19,17.61,12.51,19.91c2.8,1.94,15.27,23.76,20,30.77Z" style="fill:#fff;stroke:#263238;stroke-linecap:round;stroke-linejoin:round"></path><line x1="105.77" y1="176.51" x2="115.21" y2="195.65" style="fill:#fff;stroke:#263238;stroke-linecap:round;stroke-linejoin:round"></line><polygon points="146.34 197.44 128.99 221.93 135.12 230.35 152.32 202.34 146.34 197.44" style="fill:#fff;stroke:#263238;stroke-linecap:round;stroke-linejoin:round"></polygon><polygon points="102.68 421.05 103 432.62 129.7 431.98 131.31 422.65 102.68 421.05" style="fill:#fff;stroke:#263238;stroke-linecap:round;stroke-linejoin:round"></polygon></g></svg>
